<?xml version="1.0" encoding="UTF-8"?>
<svg version="1.1" viewBox="0 0 108.36 99.353" xmlns="http://www.w3.org/2000/svg">
 <g transform="translate(-294.87 -194.16)">
  <path d="m313.13 236.18c-26.297-16.627-19.537 24.138-4.4938 19.124" fill="#fca" stroke="#000" stroke-width="1px"/>
  <path d="m379.54 255.41c1.9316 1.2486 2.7883-1.1964 8.4927 3.4809 12.363 10.137-6.8818 20.745-16.852 14.098" fill="#fca" stroke="#000" stroke-width="1px"/>
  <path d="m299.5 239.29c1.4023-0.54174 2.8808 0.2348 3.9631 1.1047 0.66116 0.55333 1.378 1.0643 2.2234 1.2884 0.97187 0.32978 1.9748 0.85545 2.4176 1.8371 0.75009 1.4204 0.6058 3.1852-0.11422 4.5873-0.27374 1.3289 0.28407 2.6272 0.45491 3.9324 0.11608 0.62527 0.20492 1.2956-0.0341 1.9044-0.95829 0.90408-2.4156 0.77106-3.5976 0.48453-1.334-0.42355-2.4709-1.3001-3.5186-2.202-0.61528-0.56478-1.1698-1.209-1.5579-1.9524-5e-3 -1.2057 0.30392-2.5227-0.35168-3.6221-1.1607-1.0522-1.6551-2.6273-1.8792-4.1328-0.10972-1.1461-0.0894-2.5035 0.79255-3.3626 0.37956-0.37533 0.9602-0.40318 1.2017 0.13302z" fill="#f1baad" fill-opacity=".76056"/>
  <path transform="translate(294.87 194.16)" d="m12.372 49.383c-0.04615 0.04692-1.2182-0.29511-1.5532 0.37491-0.06933 0.13866 0.34312 0.46025 0.26779 0.53558-0.09964 0.09964-0.30019 0.01124-0.37491 0.16068-0.15423 0.30845-0.06378 0.7167-0.21423 1.0176-0.11762 0.23523-0.60325 0.49326-0.48202 0.85693 0.08888 0.26666 0.5332 0.31659 0.6427 0.53558 0.07315 0.1463-0.2234 0.45066 0.05356 0.58914 0.15513 0.07757 0.36641-0.13814 0.53558-0.05356 0.21251 0.10626-0.0402 0.8301 0.05356 1.0176 0.16725 0.33449 0.32343-0.02574 0.58914 0.10712 0.72838 0.36419 0.16905 1.6068 1.2318 1.6068 1.2851 0 0.72333-1.6609 1.1247-2.4637 0.14431-0.28861 0.50982-0.93424 0.37491-1.339-0.35553-1.0666-1.0076-1.4261-1.339-2.0888-0.20158-0.40316-0.41181-0.85693-0.91049-0.85693z" fill="#de8787"/>
  <path d="m344.69 211.98c-11.011-0.72115-31.313 16.948-34.937 31.448-10.105 40.418 49.341 49.212 64.753 26.095 4.9427-7.4141 8.5655-20.221 9.1814-30.444 0.63945-10.614 6.4982-27.953-38.997-27.099z" fill="#fca" stroke="#000" stroke-width="1px"/>
  <path d="m313.49 246.02c-0.50657 0.25328-1.2664 1.2664-1.5197 0.75985-0.25329-0.50657 2.0861-0.75985 1.5197-0.75985-7.0707 0-0.91184 22.568 1.1398 20.516 1.7263-1.7263-1.5197-5.0011-1.5197-7.2186 0-5.8604 2.6595-8.7659 2.6595-13.677 0-1.7754-4.1609-4.3235-2.2796 0.37993z" fill="#f1baad" fill-opacity=".67136"/>
  <path d="m319.76 241.73c1.3001 3.1764 8.8275 6.8707 13.054 5.8828 2.6309-0.61487 6.8084-3.5521 7.808-5.0996" fill="#de8787" stroke="#000" stroke-linecap="round" stroke-linejoin="round" stroke-width="1px"/>
  <path d="m341.16 226.52c-3.9958-0.52948-7.4966 4e-3 -11.114 2.4162-20.111 13.408 6.1055 26.931 16.43 6.282 3.5036-7.0072-1.1266-8.0506-5.6911-8.7416" fill="#fff" stroke="#000" stroke-width="1px"/>
  <path d="m352.52 243.22c0.8558 4.5016 7.1427 13.807 14.81 9.9732 1.237-0.61849 2.0544-2.305 2.0544-3.287" fill="#de8787" stroke="#000" stroke-linecap="round" stroke-linejoin="round" stroke-width="1px"/>
  <path d="m364.84 228.93c-3.0122-0.11743-5.6731 1.324-7.7317 3.3826-12.689 12.689 2.6692 22.459 9.6646 15.463 5.7687-5.7687 11.535-18.846-1.9329-18.846z" fill="#fff" stroke="#000" stroke-width="1px"/>
  <path d="m336.68 232.87c-3.1573-0.018-4.6311 4.7198-3.8745 5.9836 4.1451 6.9232 16.721-3.8522 3.6821-5.9882" fill="#4d4d4d" stroke="#000" stroke-width="1.1042px"/>
  <path d="m358.07 238.6c-2.5914-0.0974-4.2386 1.3392-5.3156 2.4162-0.63138 0.63138-0.32736 2.2447 0 2.8994 3.6671 7.3341 13.025-5.3156 5.3156-5.3156z" fill="#4d4d4d" stroke="#000" stroke-width="1px"/>
  <path d="m332.95 249.23c-13.517 15.985 27.928 19.032 22.712 3.3826" fill="none" stroke="#000" stroke-linecap="round" stroke-linejoin="round" stroke-width="1px"/>
  <path transform="translate(294.87 194.16)" d="m45.591 53.002c-0.89285 0.89285-4.4518 0.21472-3.0394 3.0394 0.70199 1.404 8.007 2.0048 9.3017 2.0048 6.8573 0 1.5625-5.9854 4.0975-11.055 0.06087-2.2822-5.2121-3.8097-6.5605-1.9675" fill="#e9afaf" fill-opacity=".4554"/>
  <path d="m339.71 247.3c2.8752 1.5246 6.7373 5.458 7.2485 5.7988" fill="none" stroke="#000" stroke-linecap="round" stroke-width="1px"/>
  <path d="m343.09 242.95c2.0871 2.8606 3.9421 6.0107 5.7988 7.2485" fill="none" stroke="#000" stroke-linecap="round" stroke-linejoin="round" stroke-width="1px"/>
  <path d="m338.04 251.02c2.829-0.35911 6.4363 1.8747 7.2485 2.4162" fill="none" stroke="#000" stroke-linecap="round" stroke-width="1px"/>
  <path d="m329.17 267.13c-12.438 11.243 1.4827 36.168 11.51 21.239 4.7254-7.0351 4.5198-15.976 5.0378-17.529" fill="#f55" stroke="#000" stroke-width="1px"/>
  <path d="m338.28 268.9c-3.933 0.69487-6.2042 8.5605-8.714 16.09" fill="none" stroke="#000" stroke-width="1px"/>
  <path d="m384.72 267.47c3.0041 1.8246 4.0049 3.0987 0.36748 5.0923-0.61538 0.29033-9.9444 3.4248-11.748-0.33024-0.10972-1.1461 3.3585-4.8978 4.2404-5.757 0.37956-0.37533 5.749-1.8398 5.6073-0.34585z" fill="#f1baad"/>
  <path d="m376.75 266.53c3.1847-0.70614 2.3704 5.3154-0.5393 4.3293-2.3213-0.66189-0.35075-3.6106 1.0143-4.1399" fill="#de8787"/>
  <path d="m385.14 267.59c-0.31549-0.94647-3.2235-3.6294-8.2149-1.4497-11.585 12.988 11.381 4.0594 1.2326 0" fill="none" stroke="#000" stroke-linecap="round" stroke-linejoin="round" stroke-width="1px"/>
  <path d="m299.25 239.49c6.3416-1.1607 9.0306 4.8478 9.6646 5.7988" fill="none" stroke="#000" stroke-linecap="round" stroke-linejoin="round" stroke-width="1px"/>
  <path d="m307.71 243.42c-4.0838-1.9296-5.7609 9.1679 0.78184 6.987" fill="none" stroke="#000" stroke-linecap="round" stroke-linejoin="round" stroke-width="1px"/>
  <path d="m325.62 226.49c0.6295 3.0476 21.982-0.20542 23.215-1.4381 0.33045-0.33045-2.5941-5.745-5.5469-4.7251-2.4112 0.83283-9.2855 5.2357-17.668 6.1632z" fill="#2b0000" stroke="#000" stroke-linecap="round" stroke-linejoin="round" stroke-width="1px"/>
  <path d="m360.16 225.12c1.1015 0.7894 2.3946 1.2616 3.5867 1.8966 2.6575 1.3554 5.3956 2.7644 7.4341 4.9963 0.72459 0.89843 1.358 1.869 2.006 2.8241 0.65308 1.0438 1.2548 2.1823 1.3539 3.4311 1.0578-0.84701 2.589-3.2392 2.7786-4.4801-0.074-1.7197-0.45452-2.7452-1.4338-3.6477-1.5924-1.4956-3.6702-2.2838-5.6275-3.1742-2.7996-1.1827-7.1169-1.2343-10.098-1.8462z" fill="#2b0000" stroke="#000" stroke-linecap="round" stroke-linejoin="round" stroke-width="1px"/>
  <path d="m317.57 236.46c3.7497-12.536 9.8461-21.439 22.65-21.936 11.424-3.5721 12.701 9.0975 24.369 2.6411 11.563-5.1488 25.42 12.107 17.613 23.431-1.4403 5.3184-17.304 24.05-4.4064 19.222 3.2904-6.972 24.015-3.4862 11.673-12.02 22.696-15.718 13.402-43.48-6.5106-36.7 5.1945-20.025-27.437-11.625-41.156-16.448-8.6089 6.3012-29.939 1.6694-37.583 15.865 26.56 6.7336-17.81 21.894 5.191 22.368-0.20991 6.044 4.9253 29.224 5.8071 4.2696" fill="#280b0b" stroke="#000" stroke-width="1px"/>
  <path d="m317.48 265.66c13.778 0.9732 31.565 5.6892 40.591 8.6982" fill="none" stroke="#000" stroke-width="1px"/>
  <path d="m329.48 267.27c-3.3307 2.8402 8.072-0.2932 2.8212 6.2569-0.80579 1.451-2.552 12.148-1.2512 9.2264 5.9795-14.456 8.6737-11.24 12.799-10.82 3.9313-0.31082-0.27331-1.6561-3.0077-2.165-3.8316-0.16832-7.1728-2.3491-10.958-2.4201l-0.40294-0.0787z" fill="#800000" fill-opacity=".41784"/>
 </g>
</svg>
